<svg width="375" height="304" viewBox="0 0 375 304" fill="none" xmlns="http://www.w3.org/2000/svg">
<path d="M54.7113 109.208C70.16 122.411 86.5352 137.529 87.5702 143.179C88.6052 148.828 87.8777 157.583 86.5767 162.044C85.2757 166.505 82.7296 174.364 73.7629 172.56C64.7961 170.755 55.9545 162.701 45.5759 156.154C36.1371 150.2 26.048 142.337 22.4809 139.218C18.9138 136.099 6.42213 125.316 5.02333 121.512C3.62452 117.709 6.67409 115.471 10.8707 116.758C15.0673 118.045 24.5375 125.471 24.5375 125.471C24.5375 125.471 15.9879 116.623 11.2065 110.381C8.55164 106.915 5.4407 105.319 4.75788 101.249C4.07505 97.1782 6.43663 94.676 10.6192 96.2285C14.8018 97.781 19.7216 102.288 25.545 106.34C25.545 106.34 17.4499 97.601 13.501 92.1172C9.55197 86.6333 8.67501 82.5375 11.4588 80.2861C14.2426 78.0346 22.4863 80.4291 29.7419 87.3771C36.9975 94.3251 54.7113 109.208 54.7113 109.208Z" fill="#4B1D89" stroke="black"/>
<rect x="-0.5" y="0.5" width="257" height="214" rx="89.5" transform="matrix(-1 0 0 1 325 15)" fill="#4B1D8A" stroke="black"/>
<path d="M271.499 117.591C287.621 129.963 304.768 144.198 306.099 149.786C307.43 155.373 307.164 164.154 306.099 168.677C305.034 173.2 302.905 181.183 293.856 179.852C284.807 178.522 275.554 170.944 264.845 164.952C255.106 159.503 244.618 152.181 240.891 149.254C237.165 146.327 224.124 136.216 222.527 132.491C220.93 128.766 223.858 126.371 228.116 127.435C232.375 128.5 242.222 135.418 242.222 135.418C242.222 135.418 233.219 127.032 228.116 121.05C225.283 117.728 222.092 116.298 221.196 112.269C220.3 108.24 222.527 105.617 226.785 106.948C231.044 108.278 236.194 112.52 242.222 116.26C242.222 116.26 233.679 107.959 229.447 102.69C225.215 97.4218 224.124 93.3778 226.785 90.9831C229.447 88.5884 237.805 90.546 245.416 97.1029C253.027 103.66 271.499 117.591 271.499 117.591Z" fill="#4B1D8A" stroke="black"/>
<path d="M143.622 99C94.2861 109.349 81.2715 124.13 67 155.975L113.411 152.209C121.276 161.045 127.551 164.855 141.432 170L148 149.401L143.622 99Z" fill="#FFC95C"/>
<path d="M148 149.401L143.622 99C94.2861 109.349 81.2715 124.13 67 155.975L113.411 152.209M148 149.401L141.432 170C127.551 164.855 121.276 161.045 113.411 152.209M148 149.401L113.411 152.209" stroke="black"/>
<circle cx="107.5" cy="78.5" r="20" fill="white" stroke="black"/>
<circle cx="103" cy="81" r="12" fill="black"/>
<circle cx="182.5" cy="80.5" r="20" fill="white" stroke="black"/>
<circle cx="178" cy="83" r="12" fill="black"/>
<ellipse cx="207.079" cy="52.2693" rx="9.5" ry="3.5" transform="rotate(25.6652 207.079 52.2693)" fill="black"/>
<ellipse rx="9.5" ry="3.5" transform="matrix(-0.90134 0.433112 0.433112 0.90134 87.0786 50.2693)" fill="black"/>
<path d="M177 23C175.966 14.8224 175.931 10.1806 184.5 1" stroke="black"/>
<path d="M189 23C187.966 14.8224 187.931 10.1806 196.5 1" stroke="black"/>
<path d="M183 23C181.966 14.8224 181.931 10.1806 190.5 1" stroke="black"/>
<path d="M177.75 230V292.892M177.75 292.892L162 299.069M177.75 292.892L171.625 303M177.75 292.892L183 303" stroke="black"/>
<path d="M194.618 204.032C238.26 204.032 277.783 201.029 306.406 196.17C320.713 193.741 332.321 190.844 340.363 187.616C344.382 186.003 347.54 184.296 349.701 182.503C351.858 180.714 353.092 178.779 353.092 176.713C353.092 173.666 350.891 170.253 346.623 167.107C342.967 164.413 337.731 161.865 330.847 159.856C331.857 159.94 333.038 160.063 334.35 160.23C338.727 160.784 344.544 161.811 350.359 163.45C356.18 165.091 361.965 167.335 366.302 170.307C370.642 173.282 373.447 176.924 373.512 181.357C373.543 183.468 372.277 185.593 369.677 187.717C367.083 189.835 363.237 191.886 358.294 193.846C348.414 197.765 334.274 201.274 317.347 204.255C283.502 210.216 238.612 214.048 194.609 214.85C150.623 215.652 106.509 211.292 73.2753 204.48C56.6558 201.074 42.7785 197.058 33.0048 192.779C28.1159 190.638 24.2781 188.442 21.6397 186.239C18.991 184.028 17.6241 181.873 17.5101 179.822C17.3945 177.74 18.2747 175.791 19.9603 173.957C21.6505 172.118 24.1244 170.425 27.1141 168.883C33.0916 165.799 41.0143 163.374 48.5025 161.567C51.4914 160.846 54.4061 160.225 57.0931 159.7C53.1356 161.171 49.4477 163.038 46.3088 165.048C43.2991 166.975 40.7775 169.043 39.0017 171.035C37.244 173.006 36.146 174.981 36.146 176.713C36.146 178.779 37.38 180.714 39.5362 182.503C41.6976 184.296 44.8552 186.003 48.874 187.616C56.9164 190.844 68.5241 193.741 82.8314 196.17C111.454 201.029 150.976 204.032 194.618 204.032Z" fill="#32FF11" stroke="black"/>
<path d="M215.75 230V292.892M215.75 292.892L200 299.069M215.75 292.892L209.625 303M215.75 292.892L221 303" stroke="black"/>
</svg>
