<svg width="20" height="24" viewBox="0 0 20 24" fill="none" xmlns="http://www.w3.org/2000/svg">
<rect x="0.75" y="9.75" width="18.5" height="13.5" rx="4.25" stroke="#EDF1F6" stroke-width="1.5"/>
<path d="M5 10V5.67262C5 4.18394 5.62609 2.70858 6.90458 1.94592C9.07312 0.652322 10.79 0.721198 12.9371 1.93449C14.3012 2.70532 15 4.24322 15 5.81003V10" stroke="#EDF1F6" stroke-width="2"/>
<path d="M9.35 17.8437V17.6115L9.13597 17.5212C8.60338 17.2967 8.35 16.7624 8.35 16C8.35 15.0887 9.08873 14.35 10 14.35C10.9113 14.35 11.65 15.0887 11.65 16C11.65 16.7624 11.3966 17.2967 10.864 17.5212L10.65 17.6115V17.8437V19.0022C10.65 19.4094 10.3508 19.7138 9.99171 19.7125C9.63673 19.7113 9.35 19.415 9.35 18.992V17.8437Z" stroke="#EDF1F6" stroke-width="0.7"/>
</svg>
